<svg width="163" height="87" viewBox="0 0 163 87" fill="none" xmlns="http://www.w3.org/2000/svg">
<path d="M26.0121 31.217L26.0123 31.217C27.948 30.6979 29.9741 30.0812 30.7567 29.8409L36.5679 28.0565L36.5776 34.1355C36.5784 34.6525 36.5801 36.2229 36.5801 36.5634V40.2425L34.0087 40.7639L33.9933 64.6385C33.9933 68.0343 33.7459 71.6161 32.2069 74.641C30.4814 78.0325 27.5125 80.066 23.6171 81.0894L23.6157 81.0898C20.8751 81.8089 17.0132 82.6342 13.4779 80.6845L26.0121 31.217ZM26.0121 31.217C24.3505 31.6627 21.7841 32.2462 21.0316 32.4154L20.8754 32.4505M26.0121 31.217L20.8754 32.4505M20.8754 32.4505L20.6652 32.4893C19.986 32.6148 18.1016 32.952 15.6599 33.3132L20.8754 32.4505ZM8.47419 45.274L5.48035 45.6528L5.50003 40.5278C5.50061 40.3786 5.5015 40.1269 5.50248 39.8487C5.50427 39.3408 5.50638 38.7443 5.50745 38.5203L5.52669 34.4914L9.53317 34.0669C11.1859 33.8917 13.163 33.6815 15.6581 33.3135L8.47419 45.274ZM8.47419 45.274L8.47493 69.182C8.47493 69.1821 8.47493 69.1821 8.47493 69.1822C8.47493 71.1682 8.57163 73.3325 9.17549 75.279C9.8467 77.4426 11.1686 79.411 13.477 80.684L8.47419 45.274ZM19.9362 72.0957C19.3803 71.631 19.1073 70.7173 19.1073 69.3115C19.1073 69.1729 19.1098 69.0293 19.1156 68.8808C19.1238 68.6351 19.1271 65.8037 19.1271 62.0958C19.1271 56.6829 19.1206 49.4022 19.1171 45.5714L19.5104 45.5152L19.531 62.0958L19.5368 66.6883C19.5368 66.6894 19.5368 66.6904 19.5368 66.6915C19.5367 67.4066 19.5238 67.9263 19.4864 68.3392C19.4507 68.7331 19.4044 68.8771 19.4048 68.8772C19.4048 68.8772 19.405 68.8766 19.4054 68.8755C19.4267 68.8175 19.5395 68.5574 19.8313 68.2971C20.1016 68.0558 20.3314 67.9874 20.3509 67.9816C20.3511 67.9815 20.3512 67.9815 20.3514 67.9814L20.57 68.9295L20.5718 68.9372L20.6582 69.3115L21.0047 70.8139L19.9362 72.0957ZM19.9362 72.0957C20.3095 72.4069 20.7897 72.4973 21.3628 72.3662M19.9362 72.0957L21.0054 70.8168L21.3628 72.3662M21.3628 72.3662C23.8452 71.7936 24.0368 69.6517 24.0368 66.6883L24.0095 44.8039L23.6165 44.8786C23.6198 48.4626 23.6271 56.3357 23.6271 62.0958C23.6271 63.8576 23.6265 65.4634 23.6246 66.6883H24.0352L23.6246 66.6888C23.6225 67.9843 23.619 68.8537 23.613 69.0313L23.6126 69.0432L23.6122 69.055C23.6088 69.1411 23.6073 69.2264 23.6073 69.3115C23.6073 69.661 23.6364 69.8049 23.6355 69.8051C23.6352 69.8052 23.6325 69.7935 23.6259 69.7715C23.6075 69.7097 23.548 69.535 23.4092 69.3115C23.3566 69.2267 23.2925 69.1349 23.215 69.0396C23.209 69.0322 23.2029 69.0248 23.1968 69.0174C23.0955 68.8955 22.9722 68.7684 22.8226 68.6433L22.5285 68.995L22.5139 69.0125L22.2639 69.3115L21.0077 70.8141L21.3628 72.3662ZM8.47215 42.3958C8.47244 42.3954 8.47326 42.4051 8.47374 42.4262C8.4721 42.4068 8.47186 42.3962 8.47215 42.3958ZM11.1918 44.9615C11.1961 44.9616 11.1982 44.9617 11.1982 44.9617C11.1982 44.9617 11.196 44.9617 11.1918 44.9615ZM22.0221 45.1952C22.0221 45.1951 22.0234 45.1947 22.0259 45.1939C22.0233 45.1948 22.022 45.1952 22.0221 45.1952ZM19.5044 42.2013C19.505 42.2003 19.5061 42.2161 19.5063 42.2517C19.504 42.2201 19.5039 42.2023 19.5044 42.2013Z" fill="white" stroke="white" stroke-width="9"/>
<path d="M37.722 36.9491L37.145 37.1305L30.2672 39.2932L27.1172 40.2839V43.586V44.8855V50.4495L28.8043 50.0887L28.7966 62.0576L27.2039 62.6504L27.1459 65.7138C27.1436 65.8356 27.1383 66.1123 27.1322 66.4242C27.1249 66.8027 27.1165 67.2332 27.1114 67.5017L26.9943 73.6607L32.8972 71.8994C33.2016 71.8086 34.3661 71.46 35.4509 71.1353L36.1123 70.9372L36.1131 71.0717L41.6187 69.2248L44.5635 68.2956L44.5631 68.2358C44.6469 68.2077 44.7302 68.1797 44.8126 68.152L46.1776 67.6931L46.602 67.5504L46.7185 67.5112L46.7489 67.501L46.7567 67.4984L46.7586 67.4977L46.7591 67.4975L46.7593 67.4975L45.8089 64.671C45.8089 64.671 45.8089 64.671 45.8089 64.671L46.7593 67.4975L46.7657 67.4953L45.8104 64.6686C45.8104 64.6686 45.8104 64.6686 45.8104 64.6686L46.7657 67.4953L46.7658 67.4953L46.7663 67.4951L46.7683 67.4944L46.7762 67.4918L46.807 67.4814L46.9241 67.4418L47.3447 67.2997L48.644 66.8606L50.7787 66.1392L53.8576 65.0984L53.8376 61.8484C53.8373 61.8051 53.8369 61.7464 53.8365 61.6767C53.8342 61.3094 53.8299 60.6361 53.8286 60.2908L53.8077 55.0002L52.3709 55.2396L52.3601 42.2574C52.3601 42.2568 52.3601 42.2562 52.3601 42.2557C52.3601 42.255 52.3601 42.2543 52.3601 42.2536C52.3589 39.9885 51.3057 37.9213 49.787 36.515L49.7846 36.5128C48.0001 34.8627 45.6593 34.1446 43.3339 34.3489L37.722 36.9491ZM37.722 36.9491C38.9139 35.8821 40.8248 34.5695 43.333 34.349L37.722 36.9491ZM28.7954 63.9542C28.7954 63.9532 28.7954 63.9522 28.7954 63.9513V63.9542ZM52.374 59.0052C52.3741 59.014 52.3741 59.0197 52.374 59.022L52.374 59.0193L52.374 59.0052Z" fill="white" stroke="white" stroke-width="9"/>
<path d="M90.7503 16.14L89.4233 16.5627C89.3107 16.5986 89.0154 16.6926 88.6057 16.8231C86.7684 17.4084 82.6298 18.7267 82.3475 18.8169L79.1868 19.8267L79.2172 23.1446C79.2196 23.4067 79.2253 24.2561 79.2278 24.6458L79.2592 29.5792L80.9075 29.4168V42.3607L79.2017 43.1136L79.1801 46.0224C79.1785 46.2383 79.1728 46.8634 79.1687 47.2923L79.1058 53.8398L85.2408 51.5518C85.557 51.4339 86.8119 50.967 87.9908 50.5284L89.5701 49.9408L90.0764 49.7524L90.2169 49.7002L90.2493 49.6881L90.2769 49.6781L90.404 49.632L90.8598 49.4666L92.2651 48.9567C93.2984 48.5818 94.3809 48.1889 94.5469 48.1284L97.4589 47.0665L97.5047 43.9672C97.5062 43.8672 97.5083 43.6631 97.5106 43.4462C97.5128 43.2343 97.5152 43.0102 97.5171 42.8585L97.5922 37.1416L95.317 37.6601L95.3168 34.3852C95.5433 34.3155 95.801 34.2363 96.0717 34.153C97.2246 33.7986 98.6116 33.3721 98.8161 33.3086L101.981 32.3252V29.0113L101.982 25.3848L101.984 23.0356L101.984 22.2681L101.984 22.0537L101.984 21.9972L101.984 21.9828V21.9791L101.984 21.9782V21.978L97.484 21.9757L101.984 21.9779V21.9757C101.984 20.0502 101.282 17.8723 99.3363 16.3958C98.0904 15.4493 96.6562 15.0386 95.2775 14.9847L95.2769 14.6979L94.3179 15.0034C93.724 15.0495 93.1523 15.1575 92.6241 15.3118L92.6234 15.312C91.9166 15.5186 91.2938 15.8095 90.7503 16.14ZM92.1527 26.8535L92.1527 26.8535L91.9781 26.8542L91.9781 26.8542L92.1527 26.8535ZM90.8972 26.8584L91.9775 26.8542L91.9775 26.8542L90.8972 26.8584C90.8972 26.8584 90.8972 26.8584 90.8972 26.8584ZM95.3172 41.1411V41.1391C95.3173 41.1454 95.3172 41.1464 95.3172 41.1414V41.1411ZM84.1689 29.0955C84.1788 29.0945 84.1778 29.095 84.167 29.0957L84.1689 29.0955ZM80.9075 26.2372C80.9074 26.2266 80.9075 26.2192 80.9075 26.215C80.9075 26.2138 80.9075 26.2128 80.9075 26.2122V26.2372Z" fill="white" stroke="white" stroke-width="9"/>
<path d="M66.5904 52.5798H67.2965L67.7076 54.0885L68.2802 56.19L68.4795 56.9215C68.0102 57.0494 67.1601 57.2366 66.1381 57.1514L66.5904 52.5798ZM66.5904 52.5798L66.5301 52.451L66.5296 52.45L65.8525 51.0033C66.1354 51.0035 66.3997 51.0038 66.6465 51.004C66.6479 51.004 66.6493 51.004 66.6507 51.004C66.7245 51.0041 66.7966 51.0042 66.8672 51.0042C69.9514 51.0071 70.1244 51.0072 70.1342 51.0071M66.5904 52.5798L70.1342 51.0071M65.6352 50.539L65.6555 29.2861C66.5675 28.88 67.2896 28.5584 67.4934 28.4675L65.6602 24.3578L61.1602 24.3532L61.1599 24.7256C60.964 24.6519 60.7687 24.5905 60.5763 24.5403L60.5757 24.5402C59.6257 24.2925 58.7981 24.3745 58.4248 24.4229C57.9734 24.4815 57.5847 24.5791 57.3342 24.649L57.4536 25.0771L58.1381 27.5301L58.5436 28.9834L59.1796 28.9799L59.3298 29.3196L59.2052 29.7976C59.0557 29.7644 58.9022 29.7335 58.7451 29.7058L65.6352 50.539ZM65.6352 50.539L65.8524 51.003H66.6466H66.6508H66.8669H70.1338C70.1196 50.8565 70.0384 50.3618 69.6371 49.7753C69.3339 49.3321 68.9007 48.92 68.3481 48.6209C67.8159 48.3329 67.2992 48.2172 66.886 48.1825L65.6352 50.539ZM60.2102 50.904C60.246 50.63 60.2646 50.3433 60.2646 50.0462L60.2102 50.904ZM60.2102 50.904C60.0427 50.6543 59.7911 50.3669 59.4199 50.1089L58.3657 51.6254H58.3546L59.4072 50.1001C59.381 50.082 59.3541 50.064 59.3265 50.0462C59.3261 50.0459 59.3256 50.0456 59.3251 50.0453C59.1639 49.9413 58.9803 49.8431 58.7762 49.761L60.2102 50.904ZM70.1342 51.0071C70.1344 51.0096 70.1346 51.0119 70.1348 51.0142M70.1342 51.0071L70.1347 51.003C70.1347 51.0071 70.1348 51.0108 70.1348 51.0142M70.1348 51.0142C70.135 51.037 70.1359 51.0476 70.1363 51.0472C70.1367 51.0468 70.1366 51.0354 70.1348 51.0142ZM54.0437 29.0089L54.0491 29.9648C51.7544 30.6027 49.7395 31.9982 48.3538 34.2027L48.3529 34.2042C46.3364 37.4151 45.6985 41.7528 45.6985 46.6122C45.6985 50.6444 45.8338 53.8093 46.1574 56.1384L46.1574 56.1387C46.5081 58.6613 47.3567 61.8531 50.0349 63.6869C52.1264 65.1193 54.4462 65.1188 56.3491 64.6507C58.2957 64.172 59.8543 63.0126 60.9006 62.0461L62.1628 61.4552C62.5882 61.256 65.0461 60.1073 66.9422 59.2213C68.1227 58.6696 69.0855 58.2197 69.2042 58.1641L71.7965 56.9508V54.0885V52.5798V46.6897L70.1384 47.1415L70.1386 46.9575L70.1472 37.9872L70.1602 24.3624L70.1673 17.42L63.827 20.2481C63.1591 20.546 57.0026 23.2872 56.7177 23.4132L54.0276 24.6029L54.0379 27.5444C54.038 27.5776 54.0381 27.6223 54.0383 27.6758C54.0394 27.9954 54.0415 28.6295 54.0437 29.0089Z" fill="white" stroke="white" stroke-width="9"/>
<path d="M87.0082 40.7349C86.9429 45.1655 85.5843 52.6199 77.8378 55.5957C74.9694 56.6979 71.4802 57.0598 68.4664 54.9631L87.0082 40.7349ZM87.0082 40.7349L87.0737 40.7076L87.097 37.7335C87.0982 37.579 87.1043 36.8742 87.1102 36.204L87.1181 35.3045L87.1207 35.0152L87.1214 34.9348L87.1216 34.9137L87.1216 34.9083L87.1216 34.9069L87.1216 34.9066V34.9065L87.0108 34.9055M87.0082 40.7349L87.0108 34.9055M87.0108 34.9055V34.9055L87.1216 34.9064L87.1218 34.8866V34.8668C87.1218 32.267 86.8418 29.8246 86.1623 27.7034C85.4875 25.5969 84.3102 23.4872 82.2959 22.0618L87.0108 34.9055ZM63.5547 41.5978V41.5954L63.5563 38.4883C63.5563 38.4881 63.5563 38.4879 63.5563 38.4877C63.5563 38.4871 63.5563 38.4865 63.5563 38.4859C63.5567 35.2754 64.2279 31.7716 65.6188 28.7304C66.9793 25.7559 69.3225 22.6254 73.028 21.2686L73.0288 21.2683C75.9196 20.2105 79.3462 19.9746 82.2953 22.0614L63.5547 41.5978ZM63.5547 41.5978C63.5547 44.3528 63.8357 46.9145 64.5138 49.1141M63.5547 41.5978L64.5138 49.1141M64.5138 49.1141C65.1817 51.2806 66.3655 53.5014 68.4661 54.9629L64.5138 49.1141ZM82.6218 34.8668L83.6309 34.8757L83.6309 34.8757L82.6218 34.8668Z" fill="white" stroke="white" stroke-width="9"/>
<path d="M109.217 12.0098L109.265 6.78372L103.594 8.23837C102.995 8.39201 97.0914 9.90991 96.721 10.0057L93.3341 10.8814L93.3475 14.3797C93.3476 14.4121 93.3477 14.4471 93.3479 14.4841C93.3486 14.685 93.3496 14.9491 93.3517 15.2192L93.3961 20.7539L94.8826 20.4315V37.5285L93.2397 38.1203V41.2824C93.2397 41.5103 93.2397 42.0381 93.2406 42.4281L93.2536 48.5025L99.0607 46.7204C99.6645 46.5352 105.21 44.8333 105.549 44.7287L106.08 44.5645C107.759 44.8082 109.967 44.6874 112.175 43.3522L112.178 43.3506C115.295 41.4624 116.054 38.6907 116.508 37.0322C116.528 36.9605 116.547 36.8908 116.566 36.8234L116.567 36.8171C117.182 34.5827 117.385 31.1383 117.385 27.056C117.385 25.0331 117.337 22.7108 117.056 20.6399C116.915 19.6008 116.699 18.491 116.341 17.4451C115.998 16.4448 115.415 15.1681 114.341 14.1128L114.339 14.1111C112.785 12.5854 110.979 11.9992 109.217 12.0098ZM98.8198 19.578C98.8197 19.5781 98.8162 19.5789 98.8094 19.58C98.8164 19.5786 98.8199 19.578 98.8198 19.578Z" fill="white" stroke="white" stroke-width="9"/>
<path fill-rule="evenodd" clip-rule="evenodd" d="M27.1778 35.5634C29.1956 35.0224 31.2858 34.3859 32.0776 34.1427C32.0784 34.6589 32.0801 36.2265 32.0801 36.5634C31.7199 36.6364 31.0136 36.8182 30.5236 37.2066C30.0886 37.5518 29.5097 38.1352 29.5097 39.209L29.4933 64.6385C29.4933 71.2891 28.3742 75.1869 22.4737 76.7371C19.6936 77.4666 17.4694 77.747 15.6506 76.7437C13.4124 75.5097 12.9749 73.0367 12.9749 69.182L12.9741 42.4621C12.9741 41.6579 12.8327 41.038 12.142 40.6248C11.7136 40.3692 10.5838 40.4712 10 40.5451C10.0016 40.1169 10.0058 38.8862 10.0074 38.5418C11.6675 38.3659 13.7232 38.1476 16.3166 37.7651C18.8245 37.3941 20.7642 37.0472 21.4828 36.9144C21.4837 37.4381 21.4894 40.326 21.4902 40.7019C21.1145 40.7733 20.3802 40.9376 20.0283 41.1924C19.6031 41.5003 19.1147 41.9841 19.1147 43.0015L19.1164 44.7923C19.1197 48.3334 19.1271 56.2893 19.1271 62.0958C19.1271 65.8037 19.1238 68.6351 19.1156 68.8808C19.1098 69.0293 19.1073 69.1729 19.1073 69.3115C19.1073 70.7173 19.3803 71.631 19.9362 72.0957C20.3095 72.4069 20.7897 72.4973 21.3628 72.3662C23.8452 71.7936 24.0368 69.6517 24.0368 66.6883L24.0063 42.2637C24.0063 41.8961 24.0063 40.7783 22.9917 40.5816C22.7162 40.5285 22.3108 40.5692 22.0263 40.6098C22.0255 40.0928 22.0198 37.1684 22.0189 36.8057C22.7606 36.6389 25.414 36.0364 27.1778 35.5634Z" fill="#38520F"/>
<path fill-rule="evenodd" clip-rule="evenodd" d="M38.9928 42.3462C39.0126 42.3138 40.986 39.0724 43.7274 38.8317C44.8687 38.7313 45.9343 39.0815 46.7295 39.8167C47.4374 40.4723 47.8601 41.3844 47.8601 42.2574L47.874 59.0231C47.874 59.8413 48.1602 60.2837 48.7242 60.3393C48.9397 60.36 49.1543 60.3376 49.3286 60.3086C49.3303 60.726 49.336 61.6098 49.3377 61.8762C48.9964 61.9915 45.325 63.2322 45.325 63.2322C45.325 63.2322 41.717 64.4454 40.579 64.8272C40.5765 64.3766 40.5707 63.5276 40.5691 63.2703C40.8084 63.1815 41.2269 63.004 41.5797 62.7226C42.2037 62.2272 42.4825 61.3575 42.4825 60.716L42.494 46.9129C42.494 46.3129 42.2597 45.7918 41.8526 45.4822C41.4867 45.2042 41.0139 45.1295 40.523 45.2723C39.1589 45.6681 38.4682 46.6166 38.4682 48.0913V61.9351C38.4682 62.677 38.7807 63.1981 39.3258 63.3649C39.5627 63.4371 39.8241 63.4222 40.0338 63.3965C40.0363 63.8023 40.042 64.7284 40.0437 65.0031C39.6991 65.1118 36.2572 66.1964 36.2572 66.1964C36.2572 66.1964 32.2141 67.4072 31.6106 67.5873C31.6196 67.1118 31.6402 66.0595 31.6451 65.7989C31.877 65.7126 32.2873 65.5483 32.5644 65.379C33.0224 65.0985 33.2954 64.5658 33.2954 63.9542L33.3069 46.0681C33.3069 45.4772 33.1104 45.1279 32.6705 44.9362C32.3202 44.781 31.9083 44.8233 31.6172 44.8855V43.586C31.9576 43.4789 37.8795 41.6167 38.4945 41.4234V43.1769L38.9928 42.3462Z" fill="#38520F"/>
<path fill-rule="evenodd" clip-rule="evenodd" d="M91.3072 22.0437C91.3155 22.0247 92.1311 20.1442 93.8858 19.6313C94.8972 19.3359 95.9423 19.4687 96.6141 19.979C97.1839 20.4106 97.484 21.101 97.484 21.9757C97.484 21.9757 97.4807 28.7158 97.4807 29.0113C97.1576 29.1117 93.7896 30.1465 93.2214 30.3216C93.2182 29.8478 93.2066 26.8495 93.2066 26.8495C93.2066 26.2719 92.9855 25.9748 92.8013 25.8271C92.5776 25.6478 92.2808 25.5848 91.9839 25.6545C91.1979 25.8387 90.8163 26.5059 90.8163 27.6943L90.8172 41.1414C90.8172 42.2924 91.2571 42.6086 91.7315 42.7779C92.1846 42.9397 92.6862 42.875 93.0175 42.7995C93.0126 43.1754 93.0085 43.6783 93.0052 43.9007C92.682 44.0185 88.6974 45.4642 88.6974 45.4642C88.6974 45.4642 84.3049 47.0982 83.6685 47.3355C83.6726 46.9073 83.6783 46.2774 83.68 46.0558C83.962 45.9314 84.5294 45.6633 84.8229 45.3878C85.2275 45.0102 85.4075 44.2019 85.4075 43.5687V26.2122C85.4075 25.8578 85.3467 25.0022 84.7826 24.7184C84.4956 24.5732 84.0393 24.5864 83.7277 24.6172C83.7252 24.2296 83.7194 23.3732 83.717 23.1035C84.0599 22.9939 90.1692 21.0479 90.7892 20.8504C90.79 21.262 90.7941 23.2487 90.7941 23.2487L91.3072 22.0437Z" fill="#38520F"/>
<path fill-rule="evenodd" clip-rule="evenodd" d="M134.876 17.0645C134.892 17.0496 136.574 15.6297 138.349 15.882C140.093 16.1284 140.945 17.2346 140.952 19.2603V19.4006C140.952 20.9499 140.853 22.6445 140.788 23.7773C140.788 23.7773 140.761 24.3366 140.744 24.6769C140.27 24.6179 137.158 24.2304 136.763 24.1806C136.763 23.8445 136.769 21.8138 136.769 21.8138C136.769 20.4404 135.982 20.2919 135.645 20.2919C135.086 20.2919 134.434 20.6902 134.434 21.8113L134.454 34.1307C134.454 34.7555 134.727 35.2734 135.226 35.5896C135.586 35.8178 136.071 35.8593 136.379 35.8626C136.381 36.158 136.383 36.5978 136.383 36.8891C135.916 36.8958 128.766 37.0012 128.288 37.0086C128.288 36.7207 128.29 36.3315 128.29 36.0642C128.515 36.0402 128.829 35.9837 129.071 35.8286C129.472 35.5705 129.653 35.1713 129.653 34.534L129.663 18.5276C129.663 17.672 129.465 17.4106 129.228 17.1799C129.006 16.9649 128.687 16.9143 128.449 16.896C128.449 16.6297 128.449 16.2405 128.448 15.9533C128.929 15.9608 133.968 16.0405 134.434 16.0471V17.4438L134.876 17.0645Z" fill="#38520F"/>
<path fill-rule="evenodd" clip-rule="evenodd" d="M58.227 38.5875C56.9426 38.8655 56.0456 40.2953 56.0456 42.0638L56.0439 51.6254C56.0439 52.6694 56.3309 53.442 56.8514 53.8038C57.1244 53.9922 57.5963 54.1598 58.2953 53.8877C59.5097 53.4146 60.2646 51.9433 60.2646 50.0462L60.2736 40.697C60.2736 39.941 59.9998 39.2837 59.5229 38.8937C59.1562 38.5949 58.6965 38.4862 58.227 38.5875ZM65.6602 24.3578C65.6594 25.1644 65.6347 51.003 65.6347 51.003C65.6347 52.3192 66.1116 52.6346 66.5121 52.6669C66.8007 52.691 67.0803 52.6387 67.2965 52.5798V54.0885C67.0128 54.2213 60.9265 57.0652 60.2547 57.3797V55.7449L59.7613 56.5042C59.7408 56.5357 57.6712 59.6917 55.2743 60.2809C54.1609 60.5548 53.2787 60.4544 52.5773 59.9739C51.5774 59.2892 50.9361 57.832 50.6145 55.5192C50.335 53.5067 50.1985 50.5931 50.1985 46.6122C50.1985 41.9783 50.8415 38.7028 52.1637 36.5974C53.2079 34.9361 54.9199 34.0581 57.1161 34.0581C58.5238 34.0581 59.8584 34.7701 59.8723 34.7776L60.267 34.9908L60.2646 30.3278C60.2646 29.4623 60.0261 29.0473 59.4407 28.8947C59.1923 28.8299 58.8231 28.9054 58.5436 28.9834C58.5411 28.5469 58.5386 27.7644 58.5378 27.5287C58.8305 27.3992 64.9942 24.6549 65.6602 24.3578Z" fill="#38520F"/>
<path fill-rule="evenodd" clip-rule="evenodd" d="M121.04 19.555C120.039 19.7118 119.311 20.6819 119.311 21.862L119.313 24.3068L122.82 23.9458L122.859 21.3433C122.862 20.7541 122.642 20.2247 122.256 19.8886C121.922 19.5981 121.503 19.4828 121.04 19.555ZM116.949 37.2883C115.286 35.807 114.445 32.8834 114.445 28.5988L114.431 26.7947C114.431 24.7624 114.576 22.0686 115.71 19.2496C116.614 17.0114 118.953 15.3235 121.156 15.3235C125.299 15.3235 127.488 18.072 127.488 23.2719V27.388C127.055 27.427 123.476 27.7441 123.476 27.7441L119.235 28.1341L119.237 28.3822L119.249 31.9523C119.249 32.7349 119.476 33.4054 119.875 33.7938C120.136 34.0469 120.465 34.173 120.825 34.1597C121.583 34.1307 122.505 33.7224 122.595 31.9357C122.619 31.4494 122.626 31.0104 122.626 30.6519C122.626 30.3473 122.621 30.1042 122.616 29.9349C123.051 29.8951 126.923 29.5473 127.42 29.5025C127.42 29.7216 127.419 29.9639 127.419 29.9639C127.321 31.7706 126.583 37.7157 121.208 38.3879C119.447 38.6086 118.013 38.2385 116.949 37.2883Z" fill="#38520F"/>
<path fill-rule="evenodd" clip-rule="evenodd" d="M75.3991 30.2884C74.4148 30.6303 73.3566 31.9398 73.3566 34.0078L73.355 36.8385L77.2903 35.2626L77.2878 32.129C77.2878 31.373 77.0403 30.778 76.5897 30.4544C76.2452 30.2054 75.811 30.1457 75.3991 30.2884ZM71.0362 51.269C69.0858 49.9122 68.0547 46.5678 68.0547 41.5978L68.0563 38.4883C68.0563 33.217 70.2962 27.0611 74.5752 25.4943C76.6662 24.7291 78.3888 24.8096 79.6962 25.7349C81.6104 27.0893 82.6218 30.2469 82.6218 34.8668C82.6218 34.8668 82.5996 37.3837 82.5971 37.6983C82.2806 37.8302 73.3656 41.5571 73.3656 41.5571L73.3615 44.9479C73.3615 45.601 73.6477 46.201 74.1262 46.5537C74.5382 46.8558 75.0406 46.933 75.5397 46.7703C76.6999 46.3927 77.287 45.5081 77.287 44.1413C77.287 44.1413 77.2886 42.7023 77.2886 42.4061C77.5797 42.2841 81.881 40.4833 82.5108 40.2202V40.387C82.5108 44.3073 81.4197 49.3993 76.2238 51.3952C74.0835 52.2175 72.3387 52.1752 71.0362 51.269Z" fill="#38520F"/>
<path fill-rule="evenodd" clip-rule="evenodd" d="M106.445 21.6005C105.253 21.7175 104.413 23.0594 104.403 24.8635L104.349 33.8526C104.349 34.953 104.632 35.7754 105.147 36.1696C105.489 36.4301 105.917 36.4957 106.387 36.3596C107.528 36.0268 108.216 34.6592 108.226 32.7007L108.288 23.9648C108.292 23.1606 108.013 22.422 107.541 21.988C107.223 21.6951 106.844 21.5615 106.445 21.6005ZM104.712 12.5973C104.706 13.2213 104.657 18.9358 104.657 18.9358L105.105 18.5507C105.113 18.5424 106.1 17.6968 106.843 17.2487C108.524 16.2371 110.108 16.2636 111.187 17.3225C112.683 18.7922 112.885 23.0677 112.885 27.056C112.885 31.1597 112.664 34.0426 112.229 35.6227C111.758 37.3214 111.42 38.5488 109.847 39.5015C107.272 41.0583 104.684 39.3969 104.657 39.3803L104.256 39.1172C104.256 39.1172 104.227 40.1737 104.22 40.4293C103.887 40.5322 98.349 42.2317 97.7406 42.4184C97.7397 42.0342 97.7397 41.5114 97.7397 41.2824C98.007 41.1861 98.4995 40.9927 98.7815 40.7836C99.219 40.4625 99.3826 40.0882 99.3826 39.4044V16.0885C99.3826 15.4686 99.0323 15.2387 98.8251 15.1574C98.5694 15.057 98.1616 15.1159 97.8516 15.1831C97.8491 14.8753 97.8483 14.5765 97.8475 14.3624C98.2134 14.2678 104.113 12.7508 104.712 12.5973Z" fill="#38520F"/>
<path fill-rule="evenodd" clip-rule="evenodd" d="M146.78 21.8552C146.372 22.2303 146.163 22.8951 146.157 23.8303L146.145 25.2411L146.108 32.1074C146.108 34.0766 147.16 34.3928 147.786 34.4069C148.204 34.4152 148.549 34.2891 148.813 34.0293C149.179 33.6675 149.364 33.0576 149.364 32.2161L149.419 23.9332C149.428 22.6361 148.76 21.5988 147.869 21.52C147.431 21.481 147.065 21.5938 146.78 21.8552ZM142.381 35.904C141.592 34.5712 141.312 32.9273 141.312 29.6236L141.316 27.5423C141.316 24.1058 141.652 21.3748 142.29 19.6453C142.923 17.9358 144.137 16.9093 145.623 16.8288C147.573 16.7225 148.642 18.5399 148.654 18.559L149.137 19.398C149.137 19.398 149.165 17.8561 149.17 17.4885C149.744 17.6362 154.725 18.9225 155.082 19.0146C155.085 19.3009 155.092 20.2619 155.093 20.6735C154.887 20.6503 154.633 20.6428 154.438 20.7316C153.87 20.993 153.627 21.4113 153.627 22.1324L153.616 40.2019C153.616 43.5778 152.018 45.0823 148.431 45.0823C141.946 45.0823 140.486 41.0624 140.486 39.6533L140.483 39.2193C141.008 39.2923 144.906 39.8376 145.247 39.8849C145.384 40.5463 145.941 41.5147 147.372 41.5305C147.888 41.5363 148.299 41.3894 148.596 41.094C148.931 40.7579 149.102 40.2483 149.102 39.5778L149.072 37.1886L148.661 37.4741C148.651 37.4816 147.606 38.1853 146.597 38.1836C144.639 38.1803 143.299 37.4559 142.381 35.904Z" fill="#38520F"/>
<path fill-rule="evenodd" clip-rule="evenodd" d="M158.931 15.0628H159.518C159.895 15.0628 160.139 14.9831 160.139 14.5865C160.139 14.2396 159.833 14.1392 159.518 14.1392H158.931V15.0628ZM158.437 13.7491H159.595C160.29 13.7491 160.633 14.0296 160.633 14.608C160.633 15.0985 160.326 15.4528 159.855 15.4528L160.712 16.803H160.19L159.346 15.4528H158.931V16.803H158.437V13.7491ZM159.431 17.496C160.618 17.496 161.512 16.5283 161.512 15.2794C161.512 14.0296 160.618 13.0628 159.431 13.0628C158.23 13.0628 157.336 14.0296 157.336 15.2794C157.336 16.5283 158.23 17.496 159.431 17.496ZM159.423 12.6728C160.848 12.6728 162.007 13.8429 162.007 15.2794C162.007 16.7159 160.848 17.8852 159.423 17.8852C158.001 17.8852 156.842 16.7159 156.842 15.2794C156.842 13.8429 158.001 12.6728 159.423 12.6728Z" fill="#38520F"/>
</svg>
